<svg xmlns="http://www.w3.org/2000/svg" width="64" height="64" fill="none"><rect width="64" height="64" fill="#FF4F01" rx="32"/><path fill="#fff" d="M18 49.696c0-.432.048-1.056.24-1.536 4.272-.384 4.368-.48 4.992-3.648l4.416-22.752c.24-1.2.384-1.92.384-2.496 0-1.488-.864-1.536-4.176-1.728.048-.48.144-1.008.288-1.536 1.872 0 4.896.096 6.624.096h9.408c3.936 0 6.672-.048 8.448-.096-.048 1.008-.048 1.488-.048 2.256 0 1.824 0 3.696.096 5.712-.528.096-.96.096-1.44 0-1.488-4.752-1.872-5.904-6.624-5.904h-6.912l-2.64 13.632h3.456c4.56 0 4.992-.192 6.624-4.896a5.51 5.51 0 0 1 1.776 0c-1.008 4.08-2.016 8.16-2.496 12.336-.576.096-1.2.096-1.728 0 .096-.72.144-1.536.144-2.064 0-3.216-1.248-3.312-4.752-3.312h-3.456l-1.968 10.176c-.192 1.104-.432 1.872-.432 2.496 0 1.392.912 1.296 4.752 1.728-.048.48-.144 1.104-.288 1.536-2.4 0-5.088-.096-7.296-.096-2.16 0-5.616.096-7.392.096Z"/></svg>